<svg width="206" height="37" viewBox="0 0 206 37" fill="none" xmlns="http://www.w3.org/2000/svg">
<g clip-path="url(#clip0_1_527)">
<rect y="0.5" width="30" height="30" rx="2" fill="#335EEA"/>
<path d="M54.7645 14.3333V30.5001H52.1126V19.4276L47.1812 30.5001H45.3435L40.3889 19.4276V30.5001H37.737V14.3333H40.5982L46.274 27.0108L51.9266 14.3333H54.7645ZM56.3192 24.0334C56.3192 22.7462 56.5828 21.6064 57.11 20.6139C57.6528 19.6214 58.3817 18.8538 59.2966 18.311C60.2271 17.7528 61.2506 17.4736 62.3671 17.4736C63.3751 17.4736 64.2513 17.6752 64.9957 18.0784C65.7556 18.4661 66.3604 18.9546 66.8101 19.5439V17.683H69.4852V30.5001H66.8101V28.5926C66.3604 29.1974 65.7478 29.7014 64.9724 30.1046C64.197 30.5078 63.3131 30.7094 62.3206 30.7094C61.2196 30.7094 60.2116 30.4303 59.2966 29.872C58.3817 29.2982 57.6528 28.5073 57.11 27.4993C56.5828 26.4758 56.3192 25.3205 56.3192 24.0334ZM66.8101 24.0799C66.8101 23.196 66.624 22.4283 66.2518 21.777C65.8951 21.1257 65.4221 20.6294 64.8329 20.2883C64.2436 19.9471 63.6078 19.7765 62.9254 19.7765C62.2431 19.7765 61.6073 19.9471 61.018 20.2883C60.4287 20.6139 59.9479 21.1024 59.5758 21.7537C59.2191 22.3896 59.0407 23.1494 59.0407 24.0334C59.0407 24.9173 59.2191 25.6927 59.5758 26.3595C59.9479 27.0263 60.4287 27.5381 61.018 27.8948C61.6228 28.2359 62.2586 28.4065 62.9254 28.4065C63.6078 28.4065 64.2436 28.2359 64.8329 27.8948C65.4221 27.5536 65.8951 27.0574 66.2518 26.406C66.624 25.7392 66.8101 24.9638 66.8101 24.0799ZM73.2706 15.9849C72.7899 15.9849 72.3867 15.8221 72.061 15.4964C71.7353 15.1707 71.5725 14.7675 71.5725 14.2868C71.5725 13.8061 71.7353 13.4029 72.061 13.0772C72.3867 12.7515 72.7899 12.5887 73.2706 12.5887C73.7358 12.5887 74.1313 12.7515 74.4569 13.0772C74.7826 13.4029 74.9454 13.8061 74.9454 14.2868C74.9454 14.7675 74.7826 15.1707 74.4569 15.4964C74.1313 15.8221 73.7358 15.9849 73.2706 15.9849ZM74.5732 17.683V30.5001H71.9214V17.683H74.5732ZM79.6599 13.2866V30.5001H77.0081V13.2866H79.6599ZM87.4216 30.6629C86.336 30.6629 85.3591 30.4768 84.4906 30.1046C83.6222 29.7169 82.9399 29.1742 82.4436 28.4763C81.9474 27.7785 81.6993 26.9643 81.6993 26.0339H84.5372C84.5992 26.7317 84.8706 27.3055 85.3513 27.7552C85.8476 28.2049 86.5376 28.4298 87.4216 28.4298C88.3365 28.4298 89.0499 28.2127 89.5616 27.7785C90.0734 27.3287 90.3293 26.755 90.3293 26.0571C90.3293 25.5143 90.1664 25.0724 89.8408 24.7312C89.5306 24.39 89.1352 24.1264 88.6544 23.9403C88.1892 23.7542 87.5379 23.5526 86.7005 23.3355C85.646 23.0564 84.7853 22.7772 84.1184 22.4981C83.4671 22.2035 82.9088 21.7537 82.4436 21.1489C81.9784 20.5441 81.7458 19.7377 81.7458 18.7297C81.7458 17.7993 81.9784 16.9851 82.4436 16.2873C82.9088 15.5894 83.5602 15.0544 84.3976 14.6823C85.235 14.3101 86.2042 14.124 87.3053 14.124C88.8715 14.124 90.1509 14.5194 91.1434 15.3103C92.1514 16.0857 92.7097 17.1557 92.8182 18.5204H89.8873C89.8408 17.9311 89.5616 17.4271 89.0499 17.0084C88.5381 16.5897 87.8635 16.3803 87.0261 16.3803C86.2663 16.3803 85.646 16.5742 85.1652 16.9619C84.6845 17.3496 84.4441 17.9078 84.4441 18.6367C84.4441 19.1329 84.5914 19.5439 84.8861 19.8696C85.1962 20.1797 85.5839 20.4278 86.0492 20.6139C86.5144 20.8 87.1502 21.0016 87.9566 21.2187C89.0266 21.5134 89.895 21.808 90.5619 22.1027C91.2442 22.3973 91.818 22.8548 92.2832 23.4751C92.764 24.0799 93.0043 24.894 93.0043 25.9175C93.0043 26.7395 92.7795 27.5148 92.3298 28.2437C91.8955 28.9726 91.252 29.5618 90.399 30.0116C89.5616 30.4458 88.5691 30.6629 87.4216 30.6629ZM106.834 23.7775C106.834 24.2582 106.803 24.6924 106.741 25.0801H96.9475C97.0251 26.1036 97.405 26.9255 98.0873 27.5459C98.7697 28.1662 99.6071 28.4763 100.6 28.4763C102.026 28.4763 103.034 27.8793 103.624 26.6852H106.485C106.097 27.8638 105.391 28.833 104.368 29.5929C103.36 30.3372 102.104 30.7094 100.6 30.7094C99.3745 30.7094 98.2734 30.438 97.2964 29.8953C96.335 29.337 95.5751 28.5616 95.0168 27.5691C94.474 26.5611 94.2027 25.398 94.2027 24.0799C94.2027 22.7617 94.4663 21.6064 94.9936 20.6139C95.5363 19.6059 96.2884 18.8305 97.2499 18.2878C98.2269 17.745 99.3435 17.4736 100.6 17.4736C101.809 17.4736 102.887 17.7373 103.833 18.2645C104.779 18.7918 105.515 19.5361 106.043 20.4976C106.57 21.4436 106.834 22.5369 106.834 23.7775ZM104.066 22.9401C104.05 21.9631 103.701 21.18 103.019 20.5907C102.336 20.0014 101.491 19.7067 100.483 19.7067C99.5683 19.7067 98.7852 20.0014 98.1339 20.5907C97.4825 21.1645 97.0948 21.9476 96.9708 22.9401H104.066ZM114.863 17.4736C115.871 17.4736 116.771 17.683 117.562 18.1017C118.368 18.5204 118.996 19.1407 119.446 19.9626C119.895 20.7845 120.12 21.777 120.12 22.9401V30.5001H117.492V23.3355C117.492 22.188 117.205 21.3118 116.631 20.707C116.057 20.0867 115.274 19.7765 114.282 19.7765C113.289 19.7765 112.498 20.0867 111.909 20.707C111.335 21.3118 111.048 22.188 111.048 23.3355V30.5001H108.397V17.683H111.048V19.1485C111.483 18.6212 112.033 18.2102 112.7 17.9156C113.382 17.621 114.103 17.4736 114.863 17.4736ZM121.572 24.0334C121.572 22.7462 121.836 21.6064 122.363 20.6139C122.906 19.6214 123.635 18.8538 124.55 18.311C125.48 17.7528 126.511 17.4736 127.643 17.4736C128.481 17.4736 129.303 17.6597 130.109 18.0319C130.931 18.3886 131.582 18.8693 132.063 19.4741V13.2866H134.738V30.5001H132.063V28.5694C131.629 29.1897 131.024 29.7014 130.249 30.1046C129.489 30.5078 128.613 30.7094 127.62 30.7094C126.504 30.7094 125.48 30.4303 124.55 29.872C123.635 29.2982 122.906 28.5073 122.363 27.4993C121.836 26.4758 121.572 25.3205 121.572 24.0334ZM132.063 24.0799C132.063 23.196 131.877 22.4283 131.505 21.777C131.148 21.1257 130.675 20.6294 130.086 20.2883C129.497 19.9471 128.861 19.7765 128.178 19.7765C127.496 19.7765 126.86 19.9471 126.271 20.2883C125.682 20.6139 125.201 21.1024 124.829 21.7537C124.472 22.3896 124.294 23.1494 124.294 24.0334C124.294 24.9173 124.472 25.6927 124.829 26.3595C125.201 27.0263 125.682 27.5381 126.271 27.8948C126.876 28.2359 127.512 28.4065 128.178 28.4065C128.861 28.4065 129.497 28.2359 130.086 27.8948C130.675 27.5536 131.148 27.0574 131.505 26.406C131.877 25.7392 132.063 24.9638 132.063 24.0799Z" fill="#335EEA"/>
<path d="M37.415 4.06012L36.7463 3.88845L37.0761 0.613128H40.4508V1.38565H37.7854L37.5866 3.17465C37.7071 3.10538 37.8592 3.04063 38.0429 2.98039C38.2297 2.92016 38.4435 2.89004 38.6844 2.89004C38.9886 2.89004 39.2612 2.94275 39.5021 3.04816C39.7431 3.15056 39.9479 3.29814 40.1165 3.49089C40.2882 3.68365 40.4192 3.91555 40.5096 4.18661C40.5999 4.45767 40.6451 4.76036 40.6451 5.09467C40.6451 5.41091 40.6014 5.70154 40.5141 5.96658C40.4298 6.23162 40.3018 6.46353 40.1301 6.6623C39.9584 6.85807 39.7416 7.01016 39.4795 7.11859C39.2205 7.22701 38.9148 7.28123 38.5625 7.28123C38.2974 7.28123 38.0459 7.24508 37.808 7.1728C37.5731 7.09751 37.3623 6.98456 37.1755 6.83398C36.9918 6.68037 36.8412 6.49063 36.7238 6.26475C36.6093 6.03585 36.537 5.7678 36.5069 5.4606H37.302C37.3382 5.70757 37.4104 5.91538 37.5189 6.08404C37.6273 6.2527 37.7688 6.3807 37.9435 6.46804C38.1212 6.55237 38.3275 6.59454 38.5625 6.59454C38.7612 6.59454 38.9374 6.5599 39.091 6.49063C39.2446 6.42136 39.3741 6.32197 39.4795 6.19246C39.585 6.06296 39.6648 5.90634 39.719 5.72263C39.7762 5.53891 39.8048 5.3326 39.8048 5.1037C39.8048 4.89589 39.7762 4.70314 39.719 4.52544C39.6618 4.34774 39.5759 4.19264 39.4615 4.06012C39.35 3.9276 39.213 3.8252 39.0504 3.75292C38.8877 3.67762 38.701 3.63997 38.4902 3.63997C38.2101 3.63997 37.9977 3.67762 37.8532 3.75292C37.7116 3.82821 37.5656 3.93061 37.415 4.06012ZM45.6914 3.37795V4.38087C45.6914 4.91998 45.6432 5.37476 45.5468 5.74521C45.4504 6.11566 45.3119 6.41383 45.1312 6.63972C44.9505 6.8656 44.7321 7.02974 44.4761 7.13214C44.2231 7.23153 43.937 7.28123 43.6177 7.28123C43.3648 7.28123 43.1313 7.2496 42.9175 7.18635C42.7037 7.12311 42.5109 7.02221 42.3392 6.88367C42.1706 6.74212 42.026 6.5584 41.9055 6.33251C41.7851 6.10663 41.6932 5.83256 41.63 5.51029C41.5667 5.18803 41.5351 4.81156 41.5351 4.38087V3.37795C41.5351 2.83884 41.5833 2.38707 41.6797 2.02264C41.779 1.65822 41.9191 1.36607 42.0998 1.14621C42.2805 0.923342 42.4974 0.763717 42.7503 0.66734C43.0063 0.570963 43.2925 0.522774 43.6087 0.522774C43.8647 0.522774 44.0996 0.554398 44.3135 0.617646C44.5303 0.677881 44.7231 0.775765 44.8917 0.911295C45.0604 1.04381 45.2034 1.22151 45.3209 1.44438C45.4414 1.66424 45.5332 1.9338 45.5965 2.25305C45.6597 2.5723 45.6914 2.94726 45.6914 3.37795ZM44.8511 4.5164V3.2379C44.8511 2.94275 44.833 2.68373 44.7969 2.46086C44.7637 2.23498 44.714 2.04222 44.6478 1.8826C44.5815 1.72297 44.4972 1.59346 44.3948 1.49408C44.2954 1.39469 44.1794 1.3224 44.0469 1.27723C43.9174 1.22904 43.7713 1.20494 43.6087 1.20494C43.4099 1.20494 43.2337 1.24259 43.0801 1.31789C42.9265 1.39017 42.797 1.50612 42.6916 1.66575C42.5892 1.82537 42.5109 2.03469 42.4567 2.29371C42.4025 2.55272 42.3754 2.86745 42.3754 3.2379V4.5164C42.3754 4.81156 42.3919 5.07208 42.4251 5.29796C42.4612 5.52385 42.5139 5.71961 42.5832 5.88526C42.6525 6.0479 42.7368 6.18192 42.8362 6.28734C42.9356 6.39275 43.05 6.47105 43.1795 6.52226C43.312 6.57044 43.4581 6.59454 43.6177 6.59454C43.8225 6.59454 44.0017 6.55539 44.1553 6.47708C44.3089 6.39877 44.4369 6.27679 44.5393 6.11115C44.6448 5.94249 44.7231 5.72714 44.7743 5.46512C44.8255 5.20008 44.8511 4.88384 44.8511 4.5164ZM50.8957 3.37795V4.38087C50.8957 4.91998 50.8475 5.37476 50.7512 5.74521C50.6548 6.11566 50.5162 6.41383 50.3355 6.63972C50.1548 6.8656 49.9365 7.02974 49.6805 7.13214C49.4275 7.23153 49.1414 7.28123 48.8221 7.28123C48.5691 7.28123 48.3357 7.2496 48.1219 7.18635C47.908 7.12311 47.7153 7.02221 47.5436 6.88367C47.3749 6.74212 47.2304 6.5584 47.1099 6.33251C46.9894 6.10663 46.8976 5.83256 46.8343 5.51029C46.7711 5.18803 46.7395 4.81156 46.7395 4.38087V3.37795C46.7395 2.83884 46.7876 2.38707 46.884 2.02264C46.9834 1.65822 47.1235 1.36607 47.3042 1.14621C47.4849 0.923342 47.7017 0.763717 47.9547 0.66734C48.2107 0.570963 48.4968 0.522774 48.8131 0.522774C49.0691 0.522774 49.304 0.554398 49.5178 0.617646C49.7347 0.677881 49.9274 0.775765 50.0961 0.911295C50.2648 1.04381 50.4078 1.22151 50.5253 1.44438C50.6457 1.66424 50.7376 1.9338 50.8009 2.25305C50.8641 2.5723 50.8957 2.94726 50.8957 3.37795ZM50.0554 4.5164V3.2379C50.0554 2.94275 50.0374 2.68373 50.0012 2.46086C49.9681 2.23498 49.9184 2.04222 49.8521 1.8826C49.7859 1.72297 49.7016 1.59346 49.5992 1.49408C49.4998 1.39469 49.3838 1.3224 49.2513 1.27723C49.1218 1.22904 48.9757 1.20494 48.8131 1.20494C48.6143 1.20494 48.4381 1.24259 48.2845 1.31789C48.1309 1.39017 48.0014 1.50612 47.896 1.66575C47.7936 1.82537 47.7153 2.03469 47.6611 2.29371C47.6069 2.55272 47.5797 2.86745 47.5797 3.2379V4.5164C47.5797 4.81156 47.5963 5.07208 47.6294 5.29796C47.6656 5.52385 47.7183 5.71961 47.7876 5.88526C47.8568 6.0479 47.9412 6.18192 48.0406 6.28734C48.1399 6.39275 48.2544 6.47105 48.3839 6.52226C48.5164 6.57044 48.6625 6.59454 48.8221 6.59454C49.0269 6.59454 49.2061 6.55539 49.3597 6.47708C49.5133 6.39877 49.6413 6.27679 49.7437 6.11115C49.8491 5.94249 49.9274 5.72714 49.9786 5.46512C50.0298 5.20008 50.0554 4.88384 50.0554 4.5164ZM54.9436 6.3551V3.83875C54.9436 3.646 54.9044 3.47884 54.8261 3.33729C54.7508 3.19272 54.6364 3.08129 54.4828 3.00298C54.3292 2.92468 54.1394 2.88552 53.9135 2.88552C53.7027 2.88552 53.5175 2.92166 53.3579 2.99395C53.2013 3.06623 53.0778 3.1611 52.9874 3.27856C52.9001 3.39602 52.8564 3.52251 52.8564 3.65805H52.0206C52.0206 3.48336 52.0658 3.31018 52.1562 3.13851C52.2465 2.96684 52.376 2.81173 52.5447 2.67319C52.7164 2.53164 52.9212 2.4202 53.1591 2.33888C53.4 2.25455 53.6681 2.21239 53.9632 2.21239C54.3186 2.21239 54.6318 2.27262 54.9029 2.39309C55.177 2.51357 55.3908 2.69578 55.5444 2.93973C55.701 3.18068 55.7793 3.48336 55.7793 3.84779V6.1247C55.7793 6.28734 55.7929 6.46051 55.82 6.64423C55.8501 6.82795 55.8938 6.98607 55.951 7.11859V7.19087H55.0791C55.0369 7.09449 55.0038 6.96649 54.9797 6.80687C54.9556 6.64423 54.9436 6.49364 54.9436 6.3551ZM55.0881 4.22727L55.0972 4.81457H54.2524C54.0144 4.81457 53.8021 4.83415 53.6154 4.8733C53.4286 4.90944 53.272 4.96516 53.1455 5.04046C53.019 5.11575 52.9227 5.21062 52.8564 5.32507C52.7901 5.43651 52.757 5.56752 52.757 5.71811C52.757 5.87171 52.7916 6.01176 52.8609 6.13825C52.9302 6.26475 53.0341 6.36564 53.1726 6.44094C53.3142 6.51322 53.4874 6.54936 53.6922 6.54936C53.9482 6.54936 54.1741 6.49515 54.3698 6.38672C54.5656 6.2783 54.7207 6.14578 54.8351 5.98917C54.9526 5.83256 55.0159 5.68046 55.0249 5.53288L55.3818 5.93496C55.3607 6.06145 55.3035 6.2015 55.2101 6.3551C55.1167 6.5087 54.9918 6.65628 54.8351 6.79783C54.6815 6.93638 54.4978 7.05233 54.284 7.1457C54.0732 7.23605 53.8352 7.28123 53.5702 7.28123C53.2389 7.28123 52.9483 7.21647 52.6983 7.08697C52.4513 6.95746 52.2586 6.78428 52.12 6.56743C51.9845 6.34757 51.9167 6.10211 51.9167 5.83105C51.9167 5.56902 51.9679 5.33862 52.0703 5.13984C52.1727 4.93806 52.3203 4.7709 52.5131 4.63838C52.7058 4.50285 52.9377 4.40045 53.2088 4.33118C53.4798 4.26191 53.7825 4.22727 54.1168 4.22727H55.0881ZM57.9298 3.24242V9.07023H57.0895V2.30274H57.8575L57.9298 3.24242ZM61.2231 4.70615V4.80102C61.2231 5.15641 61.181 5.4862 61.0967 5.79039C61.0123 6.09157 60.8888 6.3536 60.7262 6.57647C60.5666 6.79934 60.3693 6.97252 60.1344 7.096C59.8995 7.21948 59.6299 7.28123 59.3257 7.28123C59.0155 7.28123 58.7414 7.23003 58.5035 7.12762C58.2656 7.02522 58.0638 6.87614 57.8981 6.68037C57.7325 6.48461 57.6 6.24969 57.5006 5.97562C57.4042 5.70154 57.3379 5.39283 57.3018 5.04949V4.54351C57.3379 4.1821 57.4057 3.85833 57.5051 3.57221C57.6045 3.28609 57.7355 3.04213 57.8981 2.84034C58.0638 2.63554 58.2641 2.48044 58.499 2.37502C58.7339 2.2666 59.005 2.21239 59.3122 2.21239C59.6194 2.21239 59.8919 2.27262 60.1299 2.39309C60.3678 2.51055 60.5681 2.67921 60.7307 2.89907C60.8934 3.11894 61.0153 3.38247 61.0967 3.68967C61.181 3.99386 61.2231 4.33269 61.2231 4.70615ZM60.3829 4.80102V4.70615C60.3829 4.46219 60.3573 4.2333 60.3061 4.01946C60.2549 3.80261 60.175 3.61287 60.0666 3.45023C59.9612 3.28458 59.8257 3.15508 59.66 3.06171C59.4944 2.96533 59.2971 2.91715 59.0682 2.91715C58.8574 2.91715 58.6737 2.95329 58.5171 3.02557C58.3635 3.09785 58.2324 3.19574 58.124 3.31922C58.0156 3.43969 57.9267 3.57823 57.8575 3.73485C57.7912 3.88845 57.7415 4.04807 57.7084 4.21372V5.3838C57.7686 5.59462 57.853 5.7934 57.9614 5.98013C58.0698 6.16385 58.2144 6.31294 58.3951 6.42738C58.5758 6.53882 58.8032 6.59454 59.0772 6.59454C59.3031 6.59454 59.4974 6.54786 59.66 6.45449C59.8257 6.35811 59.9612 6.2271 60.0666 6.06145C60.175 5.8958 60.2549 5.70606 60.3061 5.49222C60.3573 5.27538 60.3829 5.04497 60.3829 4.80102ZM63.1251 3.24242V9.07023H62.2848V2.30274H63.0528L63.1251 3.24242ZM66.4185 4.70615V4.80102C66.4185 5.15641 66.3763 5.4862 66.292 5.79039C66.2077 6.09157 66.0842 6.3536 65.9215 6.57647C65.7619 6.79934 65.5646 6.97252 65.3297 7.096C65.0948 7.21948 64.8252 7.28123 64.5211 7.28123C64.2108 7.28123 63.9368 7.23003 63.6988 7.12762C63.4609 7.02522 63.2591 6.87614 63.0935 6.68037C62.9278 6.48461 62.7953 6.24969 62.6959 5.97562C62.5995 5.70154 62.5333 5.39283 62.4971 5.04949V4.54351C62.5333 4.1821 62.601 3.85833 62.7004 3.57221C62.7998 3.28609 62.9308 3.04213 63.0935 2.84034C63.2591 2.63554 63.4594 2.48044 63.6943 2.37502C63.9292 2.2666 64.2003 2.21239 64.5075 2.21239C64.8147 2.21239 65.0873 2.27262 65.3252 2.39309C65.5631 2.51055 65.7634 2.67921 65.9261 2.89907C66.0887 3.11894 66.2107 3.38247 66.292 3.68967C66.3763 3.99386 66.4185 4.33269 66.4185 4.70615ZM65.5782 4.80102V4.70615C65.5782 4.46219 65.5526 4.2333 65.5014 4.01946C65.4502 3.80261 65.3704 3.61287 65.262 3.45023C65.1565 3.28458 65.021 3.15508 64.8554 3.06171C64.6897 2.96533 64.4924 2.91715 64.2635 2.91715C64.0527 2.91715 63.869 2.95329 63.7124 3.02557C63.5588 3.09785 63.4278 3.19574 63.3193 3.31922C63.2109 3.43969 63.1221 3.57823 63.0528 3.73485C62.9865 3.88845 62.9369 4.04807 62.9037 4.21372V5.3838C62.964 5.59462 63.0483 5.7934 63.1567 5.98013C63.2651 6.16385 63.4097 6.31294 63.5904 6.42738C63.7711 6.53882 63.9985 6.59454 64.2726 6.59454C64.4985 6.59454 64.6927 6.54786 64.8554 6.45449C65.021 6.35811 65.1565 6.2271 65.262 6.06145C65.3704 5.8958 65.4502 5.70606 65.5014 5.49222C65.5526 5.27538 65.5782 5.04497 65.5782 4.80102ZM70.3308 5.8943C70.3308 5.77383 70.3037 5.66239 70.2495 5.55999C70.1983 5.45458 70.0914 5.35971 69.9287 5.27538C69.7691 5.18803 69.5282 5.11274 69.2059 5.04949C68.9348 4.99227 68.6894 4.9245 68.4695 4.8462C68.2527 4.76789 68.0674 4.67302 67.9138 4.56158C67.7632 4.45015 67.6473 4.31913 67.566 4.16854C67.4847 4.01795 67.444 3.84176 67.444 3.63997C67.444 3.44722 67.4862 3.26501 67.5705 3.09334C67.6578 2.92166 67.7798 2.76957 67.9364 2.63705C68.096 2.50453 68.2873 2.40062 68.5102 2.32533C68.733 2.25003 68.9815 2.21239 69.2556 2.21239C69.6471 2.21239 69.9814 2.28166 70.2585 2.4202C70.5356 2.55874 70.7479 2.74397 70.8955 2.97588C71.0431 3.20477 71.1169 3.45927 71.1169 3.73936H70.2811C70.2811 3.60383 70.2404 3.47282 70.1591 3.34633C70.0808 3.21682 69.9649 3.1099 69.8113 3.02557C69.6607 2.94124 69.4754 2.89907 69.2556 2.89907C69.0237 2.89907 68.8354 2.93522 68.6909 3.0075C68.5493 3.07677 68.4454 3.16562 68.3792 3.27404C68.3159 3.38247 68.2843 3.49691 68.2843 3.61739C68.2843 3.70774 68.2993 3.78906 68.3295 3.86134C68.3626 3.93061 68.4198 3.99537 68.5011 4.0556C68.5824 4.11283 68.6969 4.16704 68.8445 4.21824C68.9921 4.26944 69.1803 4.32064 69.4092 4.37184C69.8098 4.46219 70.1395 4.57062 70.3986 4.69711C70.6576 4.82361 70.8503 4.97871 70.9768 5.16243C71.1033 5.34615 71.1666 5.56902 71.1666 5.83105C71.1666 6.04489 71.1214 6.24065 71.031 6.41835C70.9437 6.59604 70.8157 6.74965 70.647 6.87915C70.4814 7.00565 70.2826 7.10504 70.0507 7.17732C69.8218 7.24659 69.5643 7.28123 69.2782 7.28123C68.8475 7.28123 68.4831 7.20443 68.1849 7.05082C67.8867 6.89722 67.6608 6.69844 67.5072 6.45449C67.3536 6.21054 67.2768 5.95303 67.2768 5.68197H68.1171C68.1292 5.91086 68.1954 6.09308 68.3159 6.22861C68.4364 6.36112 68.584 6.456 68.7586 6.51322C68.9333 6.56743 69.1065 6.59454 69.2782 6.59454C69.5071 6.59454 69.6983 6.56442 69.8519 6.50418C70.0085 6.44395 70.1275 6.36112 70.2088 6.25571C70.2901 6.1503 70.3308 6.02983 70.3308 5.8943Z" fill="#868686"/>
<path d="M22.0056 8.26592L21.5576 7.67374C21.5288 7.63561 21.5364 7.58141 21.5746 7.55268C21.5912 7.54028 21.6117 7.53416 21.6323 7.53544L24.0093 7.6818C24.057 7.68475 24.0934 7.72577 24.0905 7.77342C24.0902 7.77818 24.0895 7.7829 24.0885 7.78754L23.5565 10.0804C23.5457 10.1269 23.4991 10.1559 23.4524 10.1452C23.4325 10.1406 23.415 10.1292 23.4026 10.113L22.8775 9.41878L14.2455 15.1035L8.02897 11.3527C7.87082 11.2573 7.68944 11.2068 7.50453 11.2068C6.94541 11.2068 6.49215 11.6583 6.49215 12.2154V19.7004C6.49215 20.5756 7.20442 21.2853 8.08303 21.2853H19.7265C20.6051 21.2853 21.3174 20.5756 21.3174 19.7004V13.6028H22.7636V19.7004C22.7636 21.3715 21.4038 22.726 19.7265 22.726H8.08303C6.40567 22.726 5.0459 21.3715 5.0459 19.7004V12.2154C5.0459 10.8626 6.14666 9.766 7.50453 9.766C7.95359 9.766 8.39409 9.88852 8.77819 10.1203L14.2117 13.3986L22.0056 8.26592Z" fill="white" stroke="white" stroke-width="0.4"/>
</g>
<defs>
<clipPath id="clip0_1_527">
<rect width="206" height="36" fill="white" transform="translate(0 0.5)"/>
</clipPath>
</defs>
</svg>
